<svg width="33" height="33" viewBox="0 0 33 33" fill="none" xmlns="http://www.w3.org/2000/svg">
<path d="M28.9883 10.24L23.4508 4.68998C23.078 4.30764 22.5721 4.08378 22.0383 4.06498C21.7675 4.05875 21.4982 4.1076 21.2468 4.2086C20.9954 4.30959 20.7671 4.4606 20.5758 4.65248L17.2758 7.93998L5.57584 19.6525C5.38947 19.8374 5.24159 20.0575 5.14075 20.2999C5.03991 20.5424 4.98811 20.8024 4.98834 21.065V26.6525C4.98834 27.1829 5.19906 27.6916 5.57413 28.0667C5.9492 28.4418 6.45791 28.6525 6.98834 28.6525H12.5758C13.1057 28.6502 13.6132 28.4391 13.9883 28.065L28.9883 13.065C29.3593 12.6885 29.5673 12.1811 29.5673 11.6525C29.5673 11.1239 29.3593 10.6165 28.9883 10.24V10.24ZM24.9883 14.24L19.4008 8.65248L21.9883 6.06498L27.5758 11.6525L24.9883 14.24Z" fill="white"/>
</svg>
