<svg width="33" height="33" viewBox="0 0 33 33" fill="none" xmlns="http://www.w3.org/2000/svg">
<path d="M28.4011 7.92261C28.4011 8.18782 28.2957 8.44218 28.1082 8.62971C27.9206 8.81725 27.6663 8.92261 27.4011 8.92261H26.4011V26.9226C26.4011 27.453 26.1903 27.9617 25.8153 28.3368C25.4402 28.7119 24.9315 28.9226 24.4011 28.9226H8.40106C7.87063 28.9226 7.36192 28.7119 6.98685 28.3368C6.61178 27.9617 6.40106 27.453 6.40106 26.9226V8.92261H5.40106C5.13585 8.92261 4.88149 8.81725 4.69396 8.62971C4.50642 8.44218 4.40106 8.18782 4.40106 7.92261C4.40106 7.65739 4.50642 7.40304 4.69396 7.2155C4.88149 7.02796 5.13585 6.92261 5.40106 6.92261H27.4011C27.6663 6.92261 27.9206 7.02796 28.1082 7.2155C28.2957 7.40304 28.4011 7.65739 28.4011 7.92261ZM11.4011 4.92261H21.4011C21.6663 4.92261 21.9206 4.81725 22.1082 4.62971C22.2957 4.44218 22.4011 4.18782 22.4011 3.92261C22.4011 3.65739 22.2957 3.40304 22.1082 3.2155C21.9206 3.02796 21.6663 2.92261 21.4011 2.92261H11.4011C11.1358 2.92261 10.8815 3.02796 10.694 3.2155C10.5064 3.40304 10.4011 3.65739 10.4011 3.92261C10.4011 4.18782 10.5064 4.44218 10.694 4.62971C10.8815 4.81725 11.1358 4.92261 11.4011 4.92261V4.92261Z" fill="white"/>
</svg>
